<svg xmlns="http://www.w3.org/2000/svg" viewBox="0 0 200 200">
  <g fill="none" stroke="#2a2218" stroke-width="7" stroke-linejoin="round" stroke-linecap="round">
    <ellipse cx="48" cy="150" rx="22" ry="14" fill="#62b85e" />
    <ellipse cx="152" cy="150" rx="22" ry="14" fill="#62b85e" />
    <circle cx="30" cy="150" r="8" fill="#62b85e" />
    <circle cx="42" cy="160" r="8" fill="#62b85e" />
    <circle cx="170" cy="150" r="8" fill="#62b85e" />
    <circle cx="158" cy="160" r="8" fill="#62b85e" />
    <ellipse cx="64" cy="168" rx="20" ry="12" fill="#62b85e" />
    <ellipse cx="136" cy="168" rx="20" ry="12" fill="#62b85e" />
    <ellipse cx="100" cy="128" rx="54" ry="40" fill="#62b85e" />
    <ellipse cx="100" cy="138" rx="32" ry="24" fill="#d4efc8" />
    <circle cx="74" cy="70" r="24" fill="#62b85e" />
    <circle cx="126" cy="70" r="24" fill="#62b85e" />
    <circle cx="74" cy="70" r="14" fill="#f4efe4" />
    <circle cx="126" cy="70" r="14" fill="#f4efe4" />
    <ellipse cx="76" cy="72" rx="6" ry="8" fill="#2a2218" stroke="none" />
    <ellipse cx="128" cy="72" rx="6" ry="8" fill="#2a2218" stroke="none" />
    <path d="M78 118q22 16 44 0" />
  </g>
</svg>
